<?xml version="1.0" standalone="no"?>
<!DOCTYPE svg PUBLIC "-//W3C//DTD SVG 1.1//EN" "http://www.w3.org/Graphics/SVG/1.1/DTD/svg11.dtd" >
<svg xmlns="http://www.w3.org/2000/svg">
<metadata></metadata>
<defs>
<font id="proxima_nova_alt_extra_condLt" horiz-adv-x="753" >
<font-face units-per-em="2048" ascent="1618" descent="-430" />
<missing-glyph horiz-adv-x="360" />
<glyph unicode="&#xfb01;" horiz-adv-x="784" d="M51 899v90h101v193q0 91 49 147.5t125 56.5q51 0 90 -28l-33 -78q-16 16 -43 16q-40 0 -64 -30.5t-24 -83.5v-193h139v-90h-139v-899h-100v899h-101zM532 1225q0 32 23.5 55t54.5 23q32 0 55 -23t23 -55t-23 -55t-55 -23q-31 0 -54.5 23t-23.5 55zM561 0v989h101v-989 h-101z" />
<glyph unicode="&#xfb02;" horiz-adv-x="839" d="M51 899v90h101v193q0 91 49 147.5t125 56.5q51 0 90 -28l-33 -78q-16 16 -43 16q-40 0 -64 -30.5t-24 -83.5v-193h139v-90h-139v-899h-100v899h-101zM561 172v1194h101v-1184q0 -61 14 -88.5t51 -27.5q46 0 70 38l45 -69q-54 -60 -129 -60q-79 0 -115.5 48t-36.5 149z " />
<glyph horiz-adv-x="0" />
<glyph horiz-adv-x="682" />
<glyph horiz-adv-x="0" />
<glyph horiz-adv-x="0" />
<glyph unicode="&#xd;" horiz-adv-x="0" />
<glyph unicode=" "  horiz-adv-x="360" />
<glyph unicode="&#x09;" horiz-adv-x="360" />
<glyph unicode="&#xa0;" horiz-adv-x="360" />
<glyph unicode="!" horiz-adv-x="444" d="M135 68q0 34 26 60t62 26q35 0 60.5 -26t25.5 -60q0 -35 -25.5 -61.5t-60.5 -26.5q-36 0 -62 26t-26 62zM158 1366h131l-27 -1014h-78z" />
<glyph unicode="&#x22;" horiz-adv-x="641" d="M119 1317q0 28 21 48.5t50 20.5q28 0 49 -20.5t21 -48.5l-41 -436h-57q-43 409 -43 436zM381 1317q0 28 20.5 48.5t49.5 20.5q30 0 49.5 -20.5t19.5 -48.5l-41 -436h-57q-41 409 -41 436z" />
<glyph unicode="#" horiz-adv-x="837" d="M35 383l18 80h150l102 440h-149l14 80h152l90 383h92l-90 -383h151l88 383h90l-88 -383h146l-15 -80h-149l-102 -440h151l-16 -80h-156l-88 -383h-92l92 383h-152l-88 -383h-92l90 383h-149zM293 463h149l105 440h-152z" />
<glyph unicode="$" horiz-adv-x="663" d="M49 96l64 88q33 -50 87 -79t111 -29v586q-45 41 -67.5 63t-58.5 65.5t-53.5 79.5t-31.5 89t-14 112q0 122 63 205.5t162 105.5v191h92v-187q110 -9 189 -88l-53 -86q-59 65 -136 74v-547q48 -46 79.5 -82t65.5 -89t51 -115.5t17 -135.5q0 -122 -57.5 -211t-155.5 -118 v-193h-92v180q-167 3 -262 121zM197 1073q0 -125 114 -242v445q-51 -23 -82.5 -76t-31.5 -127zM403 100q46 29 74.5 85t28.5 128q0 135 -103 254v-467z" />
<glyph unicode="%" horiz-adv-x="1150" d="M66 1049q0 147 66 242t173 95q110 0 175 -94.5t65 -242.5q0 -146 -65 -239t-175 -93q-107 0 -173 93.5t-66 238.5zM154 1049q0 -109 40.5 -182.5t110.5 -73.5q71 0 111.5 73.5t40.5 182.5q0 113 -40.5 187.5t-111.5 74.5q-70 0 -110.5 -74.5t-40.5 -187.5zM262 0 l555 1366h76l-557 -1366h-74zM606 309q0 147 66.5 241.5t173.5 94.5q109 0 174 -94.5t65 -241.5q0 -145 -65.5 -239.5t-173.5 -94.5q-107 0 -173.5 94.5t-66.5 239.5zM694 309q0 -110 40.5 -184t111.5 -74t111 73.5t40 184.5q0 112 -40 186t-111 74t-111.5 -74t-40.5 -186z " />
<glyph unicode="&#x26;" horiz-adv-x="776" d="M86 324q0 97 28 181t62.5 133.5t89.5 109.5q-71 193 -71 309q0 151 51.5 240t144.5 89q74 0 125 -70.5t51 -182.5q0 -65 -13.5 -120.5t-43 -104t-54.5 -80t-67 -79.5q-12 -13 -18 -20q47 -124 90 -205q42 -89 88 -176q38 114 74 305l90 -37q-44 -219 -107 -372 q75 -128 150 -244h-117q-17 27 -46.5 78.5t-37.5 64.5q-97 -168 -229 -168q-106 0 -173 94.5t-67 254.5zM195 326q0 -126 39.5 -193t101.5 -67q92 0 170 170q-64 113 -113 217q-36 74 -90 196q-108 -145 -108 -323zM297 1057q0 -99 41 -230q66 71 101.5 142t35.5 164 q0 83 -25 125t-59 42q-48 0 -71 -58t-23 -185z" />
<glyph unicode="'" horiz-adv-x="380" d="M119 1317q0 28 21 48.5t50 20.5q28 0 49 -20.5t21 -48.5l-41 -436h-57q-43 409 -43 436z" />
<glyph unicode="(" horiz-adv-x="385" d="M96 498q0 478 185 905l67 -27q-69 -217 -104 -421.5t-35 -456.5q0 -251 35 -457t104 -420l-67 -29q-185 427 -185 906z" />
<glyph unicode=")" horiz-adv-x="385" d="M37 -379q69 214 104 420t35 457q0 252 -35 456.5t-104 421.5l67 27q185 -427 185 -905q0 -479 -185 -906z" />
<glyph unicode="*" horiz-adv-x="606" d="M39 995l213 109l-213 108l37 66l200 -131l-10 239h74l-12 -239l202 131l37 -66l-213 -108l213 -109l-37 -65l-202 131l12 -240h-74l10 240l-200 -131z" />
<glyph unicode="+" horiz-adv-x="770" d="M59 649v82h283v311h86v-311h283v-82h-283v-323h-86v323h-283z" />
<glyph unicode="," horiz-adv-x="446" d="M117 -201q49 33 82.5 87t36.5 102l-9 -1q-9 -1 -12 -1q-34 0 -57 23.5t-23 58.5t24.5 60.5t59.5 25.5q43 0 70.5 -34.5t27.5 -94.5q0 -82 -41 -157t-102 -118z" />
<glyph unicode="-" horiz-adv-x="477" d="M61 449v94h355v-94h-355z" />
<glyph unicode="." horiz-adv-x="444" d="M135 68q0 34 26.5 60t61.5 26t60.5 -26t25.5 -60q0 -35 -25.5 -60.5t-60.5 -25.5t-61.5 25.5t-26.5 60.5z" />
<glyph unicode="/" horiz-adv-x="387" d="M0 -41l301 1448h86l-301 -1448h-86z" />
<glyph unicode="0" horiz-adv-x="808" d="M98 682q0 84 5.5 161.5t18 160t35.5 148.5t56 120t82.5 84t110.5 30q73 0 129 -44t88.5 -112.5t53 -165.5t27.5 -188t7 -194t-7 -194t-27 -188.5t-52.5 -166.5t-88.5 -113.5t-130 -44.5q-61 0 -110.5 30t-82.5 84.5t-56 121.5t-35.5 150t-18 160t-5.5 161zM215 682 q0 -57 1 -101t3.5 -102.5t8.5 -103t15 -93.5t23.5 -83.5t33.5 -63.5t46 -44t60 -15q42 0 74.5 25.5t52.5 75t33 103.5t18.5 130.5t7.5 135t2 136.5t-2 137t-7.5 135t-18.5 129.5t-33 102.5t-52.5 74.5t-74.5 25.5t-75 -25.5t-53 -74t-33.5 -103t-19.5 -129.5t-8 -135 t-2 -137z" />
<glyph unicode="1" horiz-adv-x="546" d="M20 1063l291 303h99v-1366h-111v1217l-209 -228z" />
<glyph unicode="2" horiz-adv-x="757" d="M92 1163q55 113 120.5 168t168.5 55q126 0 200 -90t74 -233q0 -95 -28 -192.5t-116.5 -279t-264.5 -491.5h411v-100h-542v94q195 345 283 518.5t115.5 264t27.5 186.5q0 97 -46 160t-118 63q-128 0 -199 -180z" />
<glyph unicode="3" horiz-adv-x="755" d="M66 209l90 55q76 -188 200 -188q187 0 187 295q0 81 -18 139.5t-48 88t-60.5 42t-64.5 12.5q-59 0 -73 -2v105q16 -2 71 -2q80 0 129 67t49 191q0 274 -170 274q-68 0 -112.5 -45.5t-77.5 -126.5l-86 53q39 103 114.5 161t165.5 58q128 0 204.5 -88.5t76.5 -269.5 q0 -111 -48 -202t-134 -119q82 -19 139 -115.5t57 -226.5q0 -176 -74.5 -283t-222.5 -107q-100 0 -176.5 65.5t-117.5 168.5z" />
<glyph unicode="4" horiz-adv-x="692" d="M27 377v104l393 885h135v-891h111v-98h-111v-377h-109v377h-419zM123 475h323v742z" />
<glyph unicode="5" horiz-adv-x="759" d="M88 209l88 51q31 -93 76.5 -138.5t120.5 -45.5q57 0 99 49.5t61.5 124t19.5 162.5q0 340 -162 340q-56 0 -96.5 -29.5t-87.5 -106.5l-86 37v713h497v-100h-389v-531q32 53 80 84t105 31q118 0 187 -113t69 -323q0 -116 -34 -215t-102 -161.5t-157 -62.5q-60 0 -106 16 t-79.5 49.5t-57 72.5t-46.5 96z" />
<glyph unicode="6" horiz-adv-x="759" d="M98 682q0 111 8.5 206.5t31.5 190t59 160.5t95 106.5t136 40.5q81 0 145.5 -49.5t96.5 -136.5l-76 -67q-26 77 -65 115t-101 38q-52 0 -92 -39t-62.5 -99t-37 -144.5t-19 -161.5t-4.5 -164v-35q29 87 83 144t128 57q114 0 185 -112t71 -322q0 -82 -16 -157.5t-48.5 -139 t-87.5 -101t-127 -37.5q-62 0 -110.5 27.5t-81 79.5t-55 116t-34.5 147.5t-17 163.5t-5 173zM215 506q6 -430 182 -430q60 0 99.5 49.5t54 120.5t14.5 162q0 335 -164 335q-36 0 -67 -21t-53.5 -57.5t-38 -75t-27.5 -83.5z" />
<glyph unicode="7" horiz-adv-x="622" d="M45 1266v100h533v-76l-304 -1290h-116l299 1266h-412z" />
<glyph unicode="8" horiz-adv-x="757" d="M88 322q0 126 66.5 231t144.5 152q-73 43 -134 136.5t-61 211.5q0 160 77 246.5t198 86.5t197.5 -86.5t76.5 -246.5q0 -118 -61 -211.5t-133 -136.5q77 -48 143 -152.5t66 -228.5q0 -162 -75.5 -255.5t-213.5 -93.5q-139 0 -215 93t-76 254zM205 330q0 -120 48 -187 t126 -67q77 0 125.5 67.5t48.5 188.5q0 70 -22.5 134.5t-53.5 104.5t-57.5 64t-40.5 27q-14 -3 -41 -27t-58 -64t-53 -105t-22 -136zM217 1040q0 -53 14.5 -101.5t35 -80t45 -57t41 -37.5t26.5 -16q9 4 25.5 16t40.5 37.5t44.5 57t35 80t14.5 101.5q0 116 -40 181t-120 65 t-121 -65.5t-41 -180.5z" />
<glyph unicode="9" horiz-adv-x="759" d="M80 954q0 65 9.5 126t31.5 118t53.5 99t79.5 67t106 25q302 0 302 -707q0 -92 -6 -173t-20 -163t-39 -147t-60.5 -116t-87 -78.5t-115.5 -27.5q-81 0 -145.5 50t-96.5 137l74 67q28 -78 66 -115.5t100 -37.5q52 0 92 39t62.5 98.5t37 144t19 161.5t4.5 165v35 q-29 -87 -83 -144t-128 -57q-114 0 -185 112t-71 322zM197 956q0 -335 161 -335q47 0 86.5 38.5t62 87.5t38.5 111q-6 430 -180 430q-46 0 -80 -27.5t-52.5 -76t-27 -105t-8.5 -123.5z" />
<glyph unicode=":" horiz-adv-x="444" d="M135 68q0 34 26.5 60t61.5 26t60.5 -26t25.5 -60q0 -35 -25.5 -60.5t-60.5 -25.5t-61.5 25.5t-26.5 60.5zM135 918q0 35 26.5 60.5t61.5 25.5t60.5 -25.5t25.5 -60.5t-25.5 -61t-60.5 -26t-61.5 26t-26.5 61z" />
<glyph unicode=";" horiz-adv-x="444" d="M117 -201q49 35 82.5 89t36.5 102l-9 -2q-9 -2 -12 -2q-34 0 -57 24.5t-23 59.5q0 34 24.5 59t59.5 25q43 0 70.5 -33.5t27.5 -93.5q0 -82 -41 -157t-102 -118zM135 918q0 35 26.5 60.5t61.5 25.5t60.5 -25.5t25.5 -60.5t-25.5 -61t-60.5 -26t-61.5 26t-26.5 61z" />
<glyph unicode="&#x3c;" horiz-adv-x="770" d="M59 649v72l652 315v-98l-547 -254l547 -252v-96z" />
<glyph unicode="=" horiz-adv-x="770" d="M59 442v82h652v-82h-652zM59 844v82h652v-82h-652z" />
<glyph unicode="&#x3e;" horiz-adv-x="770" d="M59 336v96l547 252l-547 254v98l652 -315v-72z" />
<glyph unicode="?" horiz-adv-x="628" d="M88 1294q41 47 99 71t118 24q114 0 190 -83.5t76 -203.5q0 -78 -24.5 -146t-59.5 -117t-69.5 -95.5t-59 -102.5t-24.5 -117q0 -33 12.5 -64.5t30.5 -49.5l-88 -50q-56 74 -56 168q0 59 17 112t42.5 90t55.5 79t55.5 79t42.5 90t17 112q0 76 -48.5 138t-123.5 62 q-82 0 -150 -71zM236 68q0 34 25.5 60t60.5 26t61.5 -26t26.5 -60q0 -35 -26.5 -60.5t-61.5 -25.5t-60.5 25.5t-25.5 60.5z" />
<glyph unicode="@" horiz-adv-x="1196" d="M72 442q0 217 90 417.5t243 325t324 124.5q181 0 288 -133.5t107 -370.5q0 -132 -25.5 -251.5t-66.5 -201.5t-92 -130t-102 -48q-64 0 -102.5 40.5t-41.5 104.5v13q-95 -158 -215 -158q-76 0 -130 59t-54 189q0 141 44.5 277.5t131.5 230.5t193 94q57 0 95 -43t52 -111 l23 117h96l-125 -590q-6 -30 -6 -47q-1 -55 12.5 -75.5t46.5 -20.5q21 0 46.5 22t53.5 69t50.5 110t37.5 155t15 195q0 211 -92 324.5t-240 113.5q-115 0 -224.5 -70t-188 -182t-126 -257.5t-47.5 -291.5q0 -241 110 -381.5t288 -140.5q142 0 270 115l31 -49 q-145 -129 -312 -129q-205 0 -331.5 158.5t-126.5 426.5zM397 430q0 -176 107 -176q34 0 64.5 15t58 46t44 54.5t42.5 64.5l78 352q-29 156 -119 156q-63 0 -117 -51t-87 -129t-52 -165.5t-19 -166.5z" />
<glyph unicode="A" horiz-adv-x="692" d="M18 0l265 1366h127l264 -1366h-115l-59 340h-307l-60 -340h-115zM207 440h278l-139 785z" />
<glyph unicode="B" horiz-adv-x="780" d="M137 0v1366h248q131 0 206 -93t75 -255q0 -247 -170 -313q82 -13 135 -112.5t53 -223.5q0 -175 -72.5 -272t-218.5 -97h-256zM248 100h129q100 0 145 70.5t45 204.5q0 119 -46.5 197.5t-143.5 78.5h-129v-551zM248 752h121q180 0 180 256q0 258 -180 258h-121v-514z" />
<glyph unicode="C" horiz-adv-x="765" d="M98 682q0 153 18 277.5t55.5 222.5t102.5 152.5t152 54.5q55 0 99 -19.5t73.5 -55.5t49 -74.5t34.5 -88.5l-94 -35q-29 87 -64.5 129.5t-97.5 42.5q-56 0 -97.5 -46t-66 -130t-36 -191t-11.5 -239t11.5 -239t36 -191t66 -130t97.5 -46q68 0 105.5 54.5t62.5 156.5l94 -37 q-67 -275 -262 -275q-87 0 -152 54.5t-102.5 152.5t-55.5 222.5t-18 277.5z" />
<glyph unicode="D" horiz-adv-x="833" d="M137 0v1366h225q97 0 170 -50.5t116.5 -144t65 -215.5t21.5 -274q0 -153 -21 -275.5t-64.5 -214.5t-115.5 -142t-169 -50h-228zM248 100h114q69 0 119 43t79.5 123t43.5 183t14 233q0 129 -14 232t-43.5 183.5t-79.5 124.5t-119 44h-114v-1166z" />
<glyph unicode="E" horiz-adv-x="698" d="M137 0v1366h469v-100h-358v-514h344v-101h-344v-551h358v-100h-469z" />
<glyph unicode="F" horiz-adv-x="696" d="M137 0v1366h469v-100h-358v-514h344v-101h-344v-651h-111z" />
<glyph unicode="G" horiz-adv-x="804" d="M98 682q0 215 33.5 370.5t108 246t186.5 90.5q183 0 256 -238l-94 -35q-28 85 -64 128.5t-98 43.5q-56 0 -97.5 -45.5t-66 -128.5t-36 -190.5t-11.5 -241.5q0 -133 11.5 -240.5t36 -191t66 -129t97.5 -45.5q52 0 89.5 40.5t58.5 112.5t30.5 157.5t9.5 188.5h-227v101h340 q0 -353 -70 -527t-233 -174q-111 0 -185 91t-107.5 246.5t-33.5 369.5z" />
<glyph unicode="H" horiz-adv-x="851" d="M137 0v1366h111v-614h354v614h111v-1366h-111v653h-354v-653h-111z" />
<glyph unicode="I" horiz-adv-x="387" d="M137 0v1366h111v-1366h-111z" />
<glyph unicode="J" horiz-adv-x="634" d="M12 78l56 84q61 -86 151 -86q168 0 168 196v1094h111v-1096q0 -150 -72 -222.5t-199 -72.5t-215 103z" />
<glyph unicode="K" horiz-adv-x="808" d="M137 0v1366h111v-743l379 743h127l-353 -651l377 -715h-129l-307 623l-94 -179v-444h-111z" />
<glyph unicode="L" horiz-adv-x="655" d="M137 0v1366h111v-1266h358v-100h-469z" />
<glyph unicode="M" horiz-adv-x="1091" d="M137 0v1366h158l252 -1051l252 1051h155v-1366h-110v1159l-275 -1159h-47l-274 1159v-1159h-111z" />
<glyph unicode="N" horiz-adv-x="851" d="M137 0v1366h111l354 -1071v1071h111v-1366h-107l-358 1085v-1085h-111z" />
<glyph unicode="O" horiz-adv-x="849" d="M98 682q0 151 17.5 274t54.5 222.5t101.5 155t152.5 55.5q89 0 154 -55.5t102 -155t54.5 -222.5t17.5 -274t-17.5 -274t-54.5 -222.5t-102 -155t-154 -55.5q-88 0 -152.5 55.5t-101.5 155t-54.5 222.5t-17.5 274zM215 682q0 -126 11 -231.5t34.5 -191.5t65.5 -134.5 t98 -48.5q57 0 99 48.5t66 135t35 191t11 231.5q0 128 -11 233t-35 191t-66 134t-99 48t-98.5 -48t-65 -134t-34.5 -191t-11 -233z" />
<glyph unicode="P" horiz-adv-x="745" d="M137 0v1366h244q100 0 170 -56t100.5 -143t30.5 -198q0 -82 -18 -152.5t-53.5 -126t-94.5 -87.5t-135 -32h-133v-571h-111zM248 672h125q96 0 144 80t48 217t-48 217t-144 80h-125v-594z" />
<glyph unicode="Q" horiz-adv-x="849" d="M98 682q0 151 17.5 274t54.5 222.5t101.5 155t152.5 55.5q89 0 154 -55.5t102 -155t54.5 -222.5t17.5 -274q0 -459 -148 -625l35 -94l-86 -35l-27 70q-51 -23 -102 -23q-88 0 -152.5 55.5t-101.5 155t-54.5 222.5t-17.5 274zM215 682q0 -126 11 -231.5t34.5 -191.5 t65.5 -134.5t98 -48.5q35 0 65 18l-122 324l88 37l102 -277q78 160 78 504q0 128 -11 233t-35 191t-66 134t-99 48t-98.5 -48t-65 -134t-34.5 -191t-11 -233z" />
<glyph unicode="R" horiz-adv-x="794" d="M137 0v1366h246q134 0 216.5 -105.5t82.5 -289.5q0 -88 -17.5 -158t-47.5 -113t-62 -68.5t-68 -37.5l207 -594h-121l-190 571h-135v-571h-111zM248 672h125q96 0 144 80t48 217t-48 217t-144 80h-125v-594z" />
<glyph unicode="S" horiz-adv-x="690" d="M49 96l64 88q33 -50 87 -79t111 -29q82 0 138.5 65.5t56.5 171.5q0 69 -23 128.5t-60 104t-82 87t-90 86.5t-82 92.5t-60 115t-23 144.5q0 140 82 229t203 89q133 0 221 -91l-53 -86q-67 76 -166 76q-72 0 -124 -59.5t-52 -155.5q0 -59 23 -112t60 -95.5t81.5 -85 t89.5 -89t82 -98.5t60 -123t23 -153q0 -148 -83 -245t-218 -97q-164 0 -266 121z" />
<glyph unicode="T" horiz-adv-x="624" d="M37 1266v100h551v-100h-221v-1266h-111v1266h-219z" />
<glyph unicode="U" horiz-adv-x="851" d="M137 334v1032h111v-1034q0 -256 178 -256t178 256v1034h111v-1032q0 -181 -77 -270t-212 -89q-133 0 -211 89t-78 270z" />
<glyph unicode="V" horiz-adv-x="692" d="M18 1366h115l213 -1214l213 1214h115l-264 -1366h-127z" />
<glyph unicode="W" horiz-adv-x="1062" d="M43 1366h117l157 -1163l164 1163h101l163 -1163l160 1163h115l-211 -1366h-121l-156 1128l-157 -1128h-121z" />
<glyph unicode="X" horiz-adv-x="692" d="M12 0l271 694l-256 672h125l194 -561l195 561h125l-256 -672l270 -694h-121l-213 584l-211 -584h-123z" />
<glyph unicode="Y" horiz-adv-x="710" d="M2 1366h119l235 -661l238 661h115l-299 -780v-586h-109v586z" />
<glyph unicode="Z" horiz-adv-x="663" d="M70 0v100l391 1166h-391v100h510v-96l-394 -1170h408v-100h-524z" />
<glyph unicode="[" horiz-adv-x="352" d="M70 -389v1778h247v-84h-161v-1610h161v-84h-247z" />
<glyph unicode="\" horiz-adv-x="387" d="M2 1407h86l301 -1448h-86z" />
<glyph unicode="]" horiz-adv-x="352" d="M35 -305h160v1610h-160v84h248v-1778h-248v84z" />
<glyph unicode="^" horiz-adv-x="669" d="M39 682l256 684h80l256 -684h-90l-207 592l-205 -592h-90z" />
<glyph unicode="_" horiz-adv-x="571" d="M-6 -82h584v-84h-584v84z" />
<glyph unicode="`" horiz-adv-x="272" d="M0 1434h111l161 -295h-71z" />
<glyph unicode="a" d="M86 494q0 113 15 206t45.5 164t81 110.5t116.5 39.5q54 0 104.5 -42.5t79.5 -123.5v141h101v-989h-101v139q-30 -75 -81 -119.5t-103 -44.5q-130 0 -194 141.5t-64 377.5zM195 494q0 -428 167 -428q52 0 99 55t67 129v485q-20 76 -67 132.5t-99 56.5q-167 0 -167 -430z " />
<glyph unicode="b" d="M125 0v1366h100v-518q29 81 79.5 123.5t103.5 42.5q67 0 117.5 -39.5t81 -110.5t45 -163.5t14.5 -206.5t-14.5 -206.5t-45 -163.5t-81 -110t-117.5 -39q-51 0 -102 44.5t-81 119.5v-139h-100zM225 250q18 -73 66 -128.5t100 -55.5q168 0 168 428q0 430 -168 430 q-52 0 -100 -57t-66 -132v-485z" />
<glyph unicode="c" horiz-adv-x="626" d="M86 496q0 148 32 263t102 185t169 70q62 0 104.5 -23t81.5 -69l-51 -74q-59 76 -127 76q-55 0 -96 -36t-63 -98.5t-32.5 -135t-10.5 -158.5t10.5 -159t32.5 -136t63 -99t96 -36q71 0 127 75l51 -73q-37 -48 -79.5 -70.5t-106.5 -22.5q-99 0 -169 71t-102 186.5t-32 263.5 z" />
<glyph unicode="d" d="M86 494q0 113 15 206t45.5 164t81 110.5t116.5 39.5q54 0 104.5 -42.5t79.5 -123.5v518h101v-1366h-101v139q-30 -75 -81 -119.5t-103 -44.5q-130 0 -194 141.5t-64 377.5zM195 494q0 -428 167 -428q52 0 99 55t67 129v485q-20 76 -67 132.5t-99 56.5q-167 0 -167 -430z " />
<glyph unicode="e" horiz-adv-x="735" d="M86 496q0 149 29 262.5t95.5 184.5t164.5 71q77 0 134 -41t89.5 -114t48 -163t15.5 -198v-35h-472q0 -184 58 -293t166 -109q43 0 86 34t75 95l70 -51q-92 -164 -237 -164q-109 0 -183 70t-106.5 184.5t-32.5 266.5zM190 543h367q0 71 -8.5 134t-27.5 122t-56.5 94 t-89.5 35t-90.5 -37.5t-58 -98.5t-28 -123t-8.5 -126z" />
<glyph unicode="f" horiz-adv-x="436" d="M51 899v90h101v193q0 91 49 147.5t125 56.5q51 0 90 -28l-33 -78q-16 16 -43 16q-40 0 -64 -30.5t-24 -83.5v-193h139v-90h-139v-899h-100v899h-101z" />
<glyph unicode="g" d="M86 496q0 113 15 205.5t45.5 163.5t80.5 110t117 39q54 0 104.5 -42.5t79.5 -123.5v141h101v-1052q0 -176 -74.5 -257t-204.5 -81q-149 0 -244 98l50 86q37 -43 86.5 -68.5t101.5 -25.5q88 0 136 61.5t48 186.5v210q-30 -76 -81 -121.5t-103 -45.5q-67 0 -117 38.5 t-80.5 108.5t-45.5 162.5t-15 206.5zM195 496q0 -426 167 -426q52 0 99 56t67 132v477q-20 76 -67 132.5t-99 56.5q-167 0 -167 -428z" />
<glyph unicode="h" horiz-adv-x="737" d="M125 0v1366h100v-520q34 71 93 119.5t122 48.5q91 0 132.5 -50.5t41.5 -160.5v-803h-102v784q0 140 -100 140q-58 0 -109 -53t-78 -126v-745h-100z" />
<glyph unicode="i" horiz-adv-x="348" d="M96 1225q0 32 23.5 55t54.5 23q32 0 55 -23t23 -55t-23 -55t-55 -23q-31 0 -54.5 23t-23.5 55zM125 0v989h100v-989h-100z" />
<glyph unicode="j" horiz-adv-x="348" d="M-59 -330l55 64q20 -45 59 -45q34 0 52 31t18 110v1159h100v-1159q0 -126 -42.5 -178.5t-123.5 -52.5q-82 0 -118 71zM96 1225q0 32 23.5 55t54.5 23q32 0 55 -23t23 -55t-23 -55t-55 -23q-31 0 -54.5 23t-23.5 55z" />
<glyph unicode="k" horiz-adv-x="702" d="M125 0v1366h100v-963l334 586h107l-254 -444l250 -545h-109l-203 473l-125 -211v-262h-100z" />
<glyph unicode="l" horiz-adv-x="403" d="M125 172v1194h100v-1184q0 -61 14.5 -88.5t51.5 -27.5q45 0 69 38l46 -69q-54 -60 -130 -60q-79 0 -115 48t-36 149z" />
<glyph unicode="m" horiz-adv-x="1126" d="M125 0v989h100v-143q34 72 92.5 120t122.5 48q78 0 122.5 -44t47.5 -126q34 72 94 121t125 49q172 0 172 -211v-803h-100v782q0 142 -100 142q-58 0 -109 -53t-78 -126v-745h-102v782q0 142 -100 142q-58 0 -109 -53t-78 -126v-745h-100z" />
<glyph unicode="n" horiz-adv-x="737" d="M125 0v989h100v-143q34 71 93 119.5t122 48.5q90 0 132 -52.5t42 -158.5v-803h-102v782q0 142 -100 142q-58 0 -109 -53t-78 -126v-745h-100z" />
<glyph unicode="o" horiz-adv-x="751" d="M86 496q0 105 16 195.5t49 164t90.5 116t133.5 42.5q63 0 113 -28t82.5 -76t54.5 -115t31.5 -141t9.5 -158t-9.5 -158t-31.5 -141.5t-54.5 -116t-82.5 -77t-113 -28.5q-76 0 -133.5 42.5t-90.5 117t-49 165t-16 196.5zM195 496q0 -85 8.5 -156.5t27.5 -136t56 -101 t88 -36.5q53 0 90 36.5t56.5 101t27.5 135.5t8 157q0 85 -8 155.5t-27.5 135t-56.5 101t-90 36.5q-51 0 -88 -36.5t-56 -101t-27.5 -135.5t-8.5 -155z" />
<glyph unicode="p" d="M125 -377v1366h100v-139q30 75 81 119.5t102 44.5q89 0 148 -69t84.5 -182t25.5 -267q0 -153 -25.5 -267t-84.5 -184t-148 -70q-53 0 -103.5 42.5t-79.5 123.5v-518h-100zM225 254q18 -75 66 -131.5t100 -56.5q168 0 168 430q0 428 -168 428q-53 0 -100.5 -55.5 t-65.5 -129.5v-485z" />
<glyph unicode="q" d="M86 496q0 114 15 206.5t45.5 163.5t80.5 109.5t117 38.5q52 0 103 -44.5t81 -119.5v139h101v-1366h-101v518q-29 -81 -79.5 -123.5t-104.5 -42.5q-88 0 -147 70t-85 184t-26 267zM195 496q0 -430 167 -430q52 0 99 56t67 132v485q-20 75 -67 130t-99 55q-167 0 -167 -428 z" />
<glyph unicode="r" horiz-adv-x="489" d="M125 0v989h100v-166q79 187 232 187v-111q-20 4 -33 4q-64 0 -116 -51.5t-83 -128.5v-723h-100z" />
<glyph unicode="s" horiz-adv-x="602" d="M49 98l57 70q79 -109 185 -109q64 0 108.5 46t44.5 122q0 50 -20 92t-52 72.5t-71 59.5t-78 61t-71 68t-52 88.5t-20 115.5q0 99 67.5 164.5t169.5 65.5q131 0 215 -107l-53 -67q-63 90 -160 90q-63 0 -103 -42.5t-40 -103.5q0 -47 20 -86.5t52.5 -69.5t71.5 -59 t78.5 -62t72 -70t52.5 -91t20 -119q0 -112 -72.5 -182t-175.5 -70q-156 0 -246 123z" />
<glyph unicode="t" horiz-adv-x="454" d="M49 899v90h103v271h100v-271h139v-90h-139v-717q0 -61 14.5 -88.5t52.5 -27.5q43 0 70 38l43 -69q-50 -60 -127 -60q-79 0 -116 48.5t-37 148.5v727h-103z" />
<glyph unicode="u" horiz-adv-x="737" d="M125 186v803h100v-784q0 -139 101 -139q58 0 108.5 50.5t77.5 123.5v749h102v-989h-102v139q-35 -72 -91 -118t-124 -46q-91 0 -131.5 50t-40.5 161z" />
<glyph unicode="v" horiz-adv-x="620" d="M27 989h108l174 -866l176 866h109l-229 -989h-113z" />
<glyph unicode="w" horiz-adv-x="1050" d="M35 989h106l158 -842l170 842h109l172 -842l159 842h107l-209 -989h-105l-178 848l-176 -848h-104z" />
<glyph unicode="x" horiz-adv-x="626" d="M33 0l221 502l-209 487h109l159 -403l160 403h109l-209 -487l221 -502h-111l-170 418l-172 -418h-108z" />
<glyph unicode="y" horiz-adv-x="737" d="M106 -303l52 86q75 -94 188 -94q77 0 121.5 64t44.5 184v210q-34 -73 -90 -118t-125 -45q-91 0 -131.5 50t-40.5 161v794h100v-776q0 -139 101 -139q58 0 108.5 50.5t77.5 123.5v741h102v-1052q0 -158 -69 -248t-195 -90q-70 0 -135 25.5t-109 72.5z" />
<glyph unicode="z" horiz-adv-x="591" d="M78 0v82l315 817h-315v90h428v-82l-313 -817h321v-90h-436z" />
<glyph unicode="{" horiz-adv-x="399" d="M12 461v78q51 0 79 42t28 103v502q0 90 54.5 146.5t125.5 56.5h66v-84h-66q-39 0 -65.5 -33t-26.5 -86v-506q0 -140 -94 -180q94 -40 94 -181v-505q0 -52 26.5 -85.5t65.5 -33.5h66v-84h-66q-71 0 -125.5 56.5t-54.5 146.5v501q0 61 -28 103.5t-79 42.5z" />
<glyph unicode="|" horiz-adv-x="360" d="M137 -41v1448h84v-1448h-84z" />
<glyph unicode="}" horiz-adv-x="399" d="M35 -305h63q39 0 67 34t28 85v505q0 142 92 181q-92 39 -92 180v506q0 53 -28 86t-67 33h-63v84h63q71 0 126 -56.5t55 -146.5v-502q0 -61 27.5 -103t78.5 -42v-78q-51 0 -78.5 -42.5t-27.5 -103.5v-501q0 -90 -55 -146.5t-126 -56.5h-63v84z" />
<glyph unicode="~" horiz-adv-x="788" d="M57 887q4 60 8.5 106t13.5 105.5t24.5 102.5t37 81.5t54 59t73.5 20.5q55 0 89.5 -42t50 -101.5t27.5 -119t32 -101.5t53 -42q58 0 82 88.5t47 321.5l84 -8q-4 -53 -7.5 -90.5t-11 -91.5t-17 -92t-26 -79t-36.5 -67t-49.5 -42.5t-65.5 -16.5q-46 0 -78 30t-47 74.5 t-28 97t-22.5 97t-29 74.5t-47.5 30q-58 0 -82 -89t-45 -319z" />
<glyph unicode="&#xa1;" horiz-adv-x="444" d="M135 922q0 35 26.5 60.5t61.5 25.5t60.5 -25.5t25.5 -60.5q0 -34 -25.5 -60t-60.5 -26t-61.5 26t-26.5 60zM158 -377l26 1014h78l27 -1014h-131z" />
<glyph unicode="&#xa2;" horiz-adv-x="626" d="M86 496q0 137 28 246.5t89 182t147 85.5v147h86v-147q76 -15 139 -88l-51 -74q-44 56 -88 70v-846q45 12 88 69l51 -73q-57 -74 -139 -88v-185h-86v185q-86 13 -146.5 85.5t-89 182.5t-28.5 248zM195 496q0 -162 36.5 -278.5t118.5 -145.5v843q-42 -14 -73 -54.5 t-48.5 -99t-25.5 -124.5t-8 -141z" />
<glyph unicode="&#xa3;" horiz-adv-x="739" d="M61 551v82h156q-3 7 -21.5 41t-24 46t-20.5 44t-20.5 53.5t-14 53.5t-11.5 65t-3 70q0 100 33.5 185.5t101.5 140t158 54.5q98 0 164.5 -57.5t93.5 -159.5l-86 -45q-27 79 -65.5 122.5t-104.5 43.5q-71 0 -124.5 -79t-53.5 -210q0 -62 13 -119.5t27.5 -90t41 -83.5 t37.5 -75h158v-82h-127q14 -61 14 -117q0 -84 -40 -171.5t-101 -139.5q40 22 77 22q47 0 109 -34.5t96 -34.5q40 0 77 22t56 52l50 -84q-25 -37 -79.5 -64t-109.5 -27q-54 0 -92 20.5t-68.5 41t-66.5 20.5q-65 0 -154 -71l-47 86q87 58 138 153.5t51 194.5q0 61 -25 131 h-193z" />
<glyph unicode="&#xa5;" horiz-adv-x="710" d="M2 1366h119l235 -661l238 661h115l-269 -698h228v-82h-258v-246h258v-82h-258v-258h-109v258h-260v82h260v246h-260v82h227z" />
<glyph unicode="&#xa6;" horiz-adv-x="360" d="M137 -41v647h84v-647h-84zM137 760v647h84v-647h-84z" />
<glyph unicode="&#xa7;" horiz-adv-x="602" d="M49 -43l57 68q79 -109 185 -109q65 0 109 51t44 119q0 51 -20 94t-52 74t-71 60t-78 60.5t-71 67.5t-52 88t-20 115q0 75 45.5 139t130.5 80q-98 71 -137 141.5t-39 153.5q0 101 67.5 164t159.5 63q134 0 223 -108l-55 -64q-42 53 -78.5 73t-85.5 20q-58 0 -96.5 -42.5 t-38.5 -105.5q0 -48 20 -88.5t52.5 -71t71.5 -60t78.5 -62t72 -69.5t52.5 -90.5t20 -117.5q0 -73 -38 -136t-112 -95q79 -65 114.5 -132t35.5 -151q0 -105 -70 -178.5t-178 -73.5q-80 0 -137 29t-109 94zM174 653q0 -68 35.5 -123t120.5 -116q119 58 119 174q0 45 -11.5 82 t-36 67.5t-36.5 42.5t-39 35q-84 -14 -118 -59.5t-34 -102.5z" />
<glyph unicode="&#xa8;" horiz-adv-x="528" d="M55 1231q0 29 22.5 50.5t51.5 21.5q31 0 52.5 -21.5t21.5 -50.5q0 -31 -21.5 -52.5t-52.5 -21.5q-30 0 -52 22t-22 52zM326 1231q0 29 21 50.5t52 21.5q29 0 51.5 -21.5t22.5 -50.5q0 -30 -22 -52t-52 -22q-31 0 -52 21.5t-21 52.5z" />
<glyph unicode="&#xa9;" horiz-adv-x="1593" d="M90 684q0 191 95 354t258 258t354 95q143 0 274 -56t225.5 -151t150.5 -226t56 -274t-56 -274t-150.5 -226t-225.5 -151t-274 -56q-191 0 -354 95t-258 258t-95 354zM147 684q0 -175 87.5 -324.5t237.5 -237t325 -87.5t324.5 87.5t237 237t87.5 324.5t-87.5 324.5 t-237 237t-324.5 87.5t-325 -87.5t-237.5 -237t-87.5 -324.5zM373 684q0 189 124 314.5t304 125.5q183 0 295 -131l-45 -47q-40 54 -109 86.5t-141 32.5q-148 0 -255.5 -106.5t-107.5 -274.5q0 -161 108.5 -270t254.5 -109q74 0 142 32.5t108 86.5l45 -45 q-114 -133 -295 -133q-179 0 -303.5 127t-124.5 311z" />
<glyph unicode="&#xaa;" horiz-adv-x="552" d="M61 864q0 97 47 155t125 58q91 0 138 -82v119q0 141 -111 141q-74 0 -135 -75l-39 61q80 86 186 86q97 0 140 -55.5t43 -175.5v-428h-84v67q-49 -84 -138 -84q-78 0 -125 58.5t-47 154.5zM145 866q0 -66 29 -109.5t82 -43.5q81 0 115 86v135q-34 86 -115 86 q-53 0 -82 -44.5t-29 -109.5z" />
<glyph unicode="&#xab;" horiz-adv-x="612" d="M61 498l185 362h94l-184 -362l184 -369h-94zM272 498l185 362h94l-184 -362l184 -369h-94z" />
<glyph unicode="&#xac;" horiz-adv-x="770" d="M59 844v82h652v-484h-86v402h-566z" />
<glyph unicode="&#xad;" horiz-adv-x="477" d="M61 449v94h355v-94h-355z" />
<glyph unicode="&#xae;" horiz-adv-x="1011" d="M72 952q0 181 127 307.5t307 126.5q119 0 219 -57.5t157.5 -157.5t57.5 -219q0 -180 -126.5 -307t-307.5 -127q-180 0 -307 127t-127 307zM127 952q0 -156 111.5 -267.5t267.5 -111.5t267.5 111.5t111.5 267.5q0 158 -111 268.5t-268 110.5t-268 -110.5t-111 -268.5z M342 702v498h203q65 0 109 -42t44 -109q0 -72 -46 -110t-81 -38l134 -199h-78l-129 197h-95v-197h-61zM403 958h142q34 0 62 27t28 64q0 40 -28 67t-62 27h-142v-185z" />
<glyph unicode="&#xaf;" horiz-adv-x="499" d="M0 1210v74h500v-74h-500z" />
<glyph unicode="&#xb0;" horiz-adv-x="573" d="M51 1149q0 98 69 167.5t167 69.5q97 0 167 -69.5t70 -167.5t-70 -167t-167 -69q-98 0 -167 69t-69 167zM129 1149q0 -65 46 -111.5t112 -46.5q65 0 112 47t47 111q0 66 -47 113t-112 47q-66 0 -112 -47t-46 -113z" />
<glyph unicode="&#xb1;" horiz-adv-x="770" d="M59 106v82h652v-82h-652zM59 649v82h283v311h86v-311h283v-82h-283v-323h-86v323h-283z" />
<glyph unicode="&#xb2;" horiz-adv-x="516" d="M55 1561q73 133 207 133q88 0 143.5 -56t55.5 -151q0 -86 -55.5 -187.5t-233.5 -363.5h291v-74h-395v68q195 280 249 377t54 180q0 61 -31.5 97t-81.5 36q-93 0 -141 -109z" />
<glyph unicode="&#xb3;" horiz-adv-x="516" d="M47 985l64 49q49 -112 141 -112q127 0 127 165q0 86 -38.5 123t-92.5 37q-43 0 -51 -2v76q10 -2 47 -2q58 0 92.5 38t34.5 109q0 77 -31 115.5t-86 38.5q-85 0 -137 -102l-62 47q31 60 84.5 94.5t116.5 34.5q91 0 146 -54.5t55 -162.5q0 -68 -35.5 -122t-89.5 -69 q54 -11 94.5 -67.5t40.5 -135.5q0 -106 -55 -170.5t-156 -64.5q-72 0 -126.5 38.5t-82.5 98.5z" />
<glyph unicode="&#xb4;" horiz-adv-x="272" d="M0 1139l160 295h112l-200 -295h-72z" />
<glyph unicode="&#xb5;" horiz-adv-x="737" d="M125 -377v1366h100v-784q0 -71 26.5 -107.5t74.5 -36.5q58 0 108.5 52.5t77.5 126.5v749h102v-989h-102v139q-35 -72 -91 -118t-124 -46q-35 0 -72 11v-363h-100z" />
<glyph unicode="&#xb6;" horiz-adv-x="919" d="M55 1014q0 146 103.5 249t249.5 103h342v-1571h-74v1497h-195v-1497h-73v867q-146 0 -249.5 103t-103.5 249z" />
<glyph unicode="&#xb7;" horiz-adv-x="444" d="M135 502q0 34 26 60t62 26q35 0 60.5 -26t25.5 -60q0 -35 -25.5 -61.5t-60.5 -26.5q-36 0 -62 26t-26 62z" />
<glyph unicode="&#xb8;" horiz-adv-x="323" d="M0 -328l31 64q58 -55 119 -55q42 0 72 25.5t30 66.5q0 35 -18 55t-46 20q-36 0 -61 -28l-53 30l63 173h74l-53 -140q25 19 59 19q44 0 75.5 -35.5t31.5 -93.5q0 -69 -49.5 -114.5t-122.5 -45.5q-82 0 -152 59z" />
<glyph unicode="&#xb9;" horiz-adv-x="415" d="M35 1487l186 194h78v-819h-88v705l-123 -133z" />
<glyph unicode="&#xba;" horiz-adv-x="573" d="M72 989q0 93 21.5 167t71.5 122.5t122 48.5q73 0 123 -48.5t72 -122.5t22 -167t-22 -167t-72 -122.5t-123 -48.5q-72 0 -122 48.5t-71.5 122.5t-21.5 167zM158 989q0 -54 6.5 -99t21 -84t40.5 -61t61 -22q36 0 62 22t40 61t20.5 84t6.5 99q0 115 -30 189.5t-99 74.5 q-68 0 -98.5 -75t-30.5 -189z" />
<glyph unicode="&#xbb;" horiz-adv-x="612" d="M61 129l185 369l-185 362h95l184 -362l-184 -369h-95zM272 129l185 369l-185 362h95l184 -362l-184 -369h-95z" />
<glyph unicode="&#xbc;" horiz-adv-x="1116" d="M35 1171l186 195h78v-819h-88v704l-123 -133zM238 0l555 1366h75l-557 -1366h-73zM637 221v74l262 524h109v-526h75v-72h-75v-221h-88v221h-283zM715 293h205v420z" />
<glyph unicode="&#xbd;" horiz-adv-x="1179" d="M35 1171l186 195h78v-819h-88v704l-123 -133zM238 0l555 1366h75l-557 -1366h-73zM719 698q73 133 207 133q88 0 143 -55.5t55 -150.5q0 -86 -55.5 -188.5t-232.5 -362.5h290v-74h-395v68q195 280 249 377t54 180q0 61 -31 97t-81 36q-94 0 -142 -109z" />
<glyph unicode="&#xbe;" horiz-adv-x="1189" d="M47 670l64 49q50 -113 141 -113q127 0 127 166q0 86 -38.5 123t-92.5 37q-43 0 -51 -2v76q10 -2 47 -2q58 0 92.5 38t34.5 109q0 77 -31 115.5t-86 38.5q-85 0 -137 -103l-62 47q31 60 84.5 94.5t116.5 34.5q91 0 146 -54.5t55 -162.5q0 -67 -35.5 -121t-89.5 -69 q54 -11 94.5 -67.5t40.5 -135.5q0 -106 -55 -171t-156 -65q-72 0 -126.5 38.5t-82.5 99.5zM311 0l555 1366h76l-557 -1366h-74zM711 221v74l262 524h108v-526h76v-72h-76v-221h-88v221h-282zM788 293h205v420z" />
<glyph unicode="&#xbf;" horiz-adv-x="538" d="M57 -117q0 66 18 125.5t44.5 100.5t57.5 85t57.5 80.5t44.5 85t18 99.5q0 71 -45 116l88 48q55 -66 55 -166q0 -70 -23.5 -130t-57.5 -105t-67.5 -90.5t-57 -105.5t-23.5 -130q0 -77 48 -139t124 -62q46 0 79.5 16t69.5 53l56 -75q-82 -92 -219 -92q-115 0 -191 82.5 t-76 203.5zM221 922q0 35 25.5 60.5t60.5 25.5t61.5 -25.5t26.5 -60.5q0 -34 -26.5 -60t-61.5 -26t-60.5 26t-25.5 60z" />
<glyph unicode="&#xc0;" horiz-adv-x="692" d="M18 0l265 1366h127l264 -1366h-115l-59 340h-307l-60 -340h-115zM168 1786h111l161 -295h-71zM207 440h278l-139 785z" />
<glyph unicode="&#xc1;" horiz-adv-x="692" d="M18 0l265 1366h127l264 -1366h-115l-59 340h-307l-60 -340h-115zM207 440h278l-139 785zM254 1491l160 295h112l-200 -295h-72z" />
<glyph unicode="&#xc2;" horiz-adv-x="692" d="M18 0l265 1366h127l264 -1366h-115l-59 340h-307l-60 -340h-115zM156 1491l137 295h104l144 -295h-66l-131 225l-123 -225h-65zM207 440h278l-139 785z" />
<glyph unicode="&#xc3;" horiz-adv-x="692" d="M18 0l265 1366h127l264 -1366h-115l-59 340h-307l-60 -340h-115zM129 1499q0 122 34 198.5t105 76.5q39 0 63.5 -33.5t33.5 -73t25 -73t40 -33.5q74 0 74 200h63q0 -77 -13.5 -136.5t-45.5 -98.5t-80 -39q-39 0 -63.5 33.5t-33.5 73t-25 73t-40 33.5q-73 0 -73 -201h-64z M207 440h278l-139 785z" />
<glyph unicode="&#xc4;" horiz-adv-x="692" d="M18 0l265 1366h127l264 -1366h-115l-59 340h-307l-60 -340h-115zM137 1573q0 29 22.5 50.5t51.5 21.5q31 0 52.5 -21.5t21.5 -50.5q0 -31 -21.5 -52.5t-52.5 -21.5q-30 0 -52 22t-22 52zM207 440h278l-139 785zM408 1573q0 29 21 50.5t52 21.5q29 0 51.5 -21.5 t22.5 -50.5q0 -30 -22 -52t-52 -22q-31 0 -52 21.5t-21 52.5z" />
<glyph unicode="&#xc5;" horiz-adv-x="692" d="M18 0l265 1366h127l264 -1366h-115l-59 340h-307l-60 -340h-115zM182 1583q0 69 48.5 117.5t117.5 48.5q67 0 114.5 -48.5t47.5 -117.5q0 -68 -47.5 -116t-114.5 -48q-69 0 -117.5 48t-48.5 116zM207 440h278l-139 785zM244 1583q0 -43 30 -72.5t74 -29.5q43 0 73 29.5 t30 72.5t-30 74t-73 31q-44 0 -74 -31t-30 -74z" />
<glyph unicode="&#xc6;" horiz-adv-x="1089" d="M37 0l438 1366h516v-100h-358v-514h344v-101h-344v-551h358v-100h-469v340h-268l-104 -340h-113zM283 440h239v785z" />
<glyph unicode="&#xc7;" horiz-adv-x="765" d="M98 682q0 153 18 277.5t55.5 222.5t102.5 152.5t152 54.5q55 0 99 -19.5t73.5 -55.5t49 -74.5t34.5 -88.5l-94 -35q-29 87 -64.5 129.5t-97.5 42.5q-56 0 -97.5 -46t-66 -130t-36 -191t-11.5 -239t11.5 -239t36 -191t66 -130t97.5 -46q68 0 105.5 54.5t62.5 156.5l94 -37 q-62 -253 -233 -273l-33 -86q25 19 59 19q44 0 75.5 -35.5t31.5 -93.5q0 -69 -49.5 -114.5t-122.5 -45.5q-81 0 -152 60l31 63q58 -55 119 -55q42 0 72 25.5t30 66.5q0 35 -17.5 55.5t-45.5 20.5q-36 0 -62 -29l-53 31l43 121q-75 13 -130.5 72.5t-88.5 155t-48.5 213.5 t-15.5 261z" />
<glyph unicode="&#xc8;" horiz-adv-x="698" d="M137 0v1366h469v-100h-358v-514h344v-101h-344v-551h358v-100h-469zM203 1786h110l162 -295h-72z" />
<glyph unicode="&#xc9;" horiz-adv-x="698" d="M137 0v1366h469v-100h-358v-514h344v-101h-344v-551h358v-100h-469zM285 1491l159 295h113l-201 -295h-71z" />
<glyph unicode="&#xca;" horiz-adv-x="698" d="M137 0v1366h469v-100h-358v-514h344v-101h-344v-551h358v-100h-469zM186 1491l138 295h104l143 -295h-65l-131 225l-123 -225h-66z" />
<glyph unicode="&#xcb;" horiz-adv-x="698" d="M137 0v1366h469v-100h-358v-514h344v-101h-344v-551h358v-100h-469zM166 1573q0 29 22.5 50.5t51.5 21.5q30 0 51.5 -21.5t21.5 -50.5q0 -31 -21 -52.5t-52 -21.5q-30 0 -52 22t-22 52zM436 1573q0 29 21.5 50.5t52.5 21.5q29 0 51.5 -21.5t22.5 -50.5q0 -30 -22 -52 t-52 -22q-31 0 -52.5 21.5t-21.5 52.5z" />
<glyph unicode="&#xcc;" horiz-adv-x="387" d="M16 1786h111l162 -295h-72zM137 0v1366h111v-1366h-111z" />
<glyph unicode="&#xcd;" horiz-adv-x="387" d="M104 1491l160 295h113l-201 -295h-72zM137 0v1366h111v-1366h-111z" />
<glyph unicode="&#xce;" horiz-adv-x="387" d="M4 1491l137 295h105l143 -295h-65l-131 225l-123 -225h-66zM137 0v1366h111v-1366h-111z" />
<glyph unicode="&#xcf;" horiz-adv-x="387" d="M-10 1573q0 29 22 50.5t51 21.5q31 0 52.5 -21.5t21.5 -50.5q0 -31 -21.5 -52.5t-52.5 -21.5q-29 0 -51 21.5t-22 52.5zM137 0v1366h111v-1366h-111zM260 1573q0 29 21.5 50.5t52.5 21.5q29 0 51.5 -21.5t22.5 -50.5q0 -30 -22 -52t-52 -22q-31 0 -52.5 21.5t-21.5 52.5z " />
<glyph unicode="&#xd0;" horiz-adv-x="868" d="M49 637v86h125v643h225q97 0 170 -50.5t116.5 -144t65 -215.5t21.5 -274q0 -153 -21 -275.5t-65 -214.5t-116 -142t-169 -50h-227v637h-125zM285 100h114q69 0 119 43t79.5 123t43.5 183t14 233q0 129 -14 232t-43.5 183.5t-79.5 124.5t-119 44h-114v-543h184v-86h-184 v-537z" />
<glyph unicode="&#xd1;" horiz-adv-x="851" d="M137 0v1366h111l354 -1071v1071h111v-1366h-107l-358 1085v-1085h-111zM201 1499q0 122 34 198.5t105 76.5q39 0 63.5 -33.5t33.5 -73t25 -73t40 -33.5q73 0 73 200h64q0 -77 -13.5 -136.5t-45.5 -98.5t-80 -39q-39 0 -63.5 33.5t-33.5 73t-25 73t-40 33.5 q-74 0 -74 -201h-63z" />
<glyph unicode="&#xd2;" horiz-adv-x="849" d="M98 682q0 151 17.5 274t54.5 222.5t101.5 155t152.5 55.5q89 0 154 -55.5t102 -155t54.5 -222.5t17.5 -274t-17.5 -274t-54.5 -222.5t-102 -155t-154 -55.5q-88 0 -152.5 55.5t-101.5 155t-54.5 222.5t-17.5 274zM215 682q0 -126 11 -231.5t34.5 -191.5t65.5 -134.5 t98 -48.5q57 0 99 48.5t66 135t35 191t11 231.5q0 128 -11 233t-35 191t-66 134t-99 48t-98.5 -48t-65 -134t-34.5 -191t-11 -233zM246 1786h110l162 -295h-72z" />
<glyph unicode="&#xd3;" horiz-adv-x="849" d="M98 682q0 151 17.5 274t54.5 222.5t101.5 155t152.5 55.5q89 0 154 -55.5t102 -155t54.5 -222.5t17.5 -274t-17.5 -274t-54.5 -222.5t-102 -155t-154 -55.5q-88 0 -152.5 55.5t-101.5 155t-54.5 222.5t-17.5 274zM215 682q0 -126 11 -231.5t34.5 -191.5t65.5 -134.5 t98 -48.5q57 0 99 48.5t66 135t35 191t11 231.5q0 128 -11 233t-35 191t-66 134t-99 48t-98.5 -48t-65 -134t-34.5 -191t-11 -233zM334 1491l160 295h112l-200 -295h-72z" />
<glyph unicode="&#xd4;" horiz-adv-x="849" d="M98 682q0 151 17.5 274t54.5 222.5t101.5 155t152.5 55.5q89 0 154 -55.5t102 -155t54.5 -222.5t17.5 -274t-17.5 -274t-54.5 -222.5t-102 -155t-154 -55.5q-88 0 -152.5 55.5t-101.5 155t-54.5 222.5t-17.5 274zM215 682q0 -126 11 -231.5t34.5 -191.5t65.5 -134.5 t98 -48.5q57 0 99 48.5t66 135t35 191t11 231.5q0 128 -11 233t-35 191t-66 134t-99 48t-98.5 -48t-65 -134t-34.5 -191t-11 -233zM233 1491l138 295h104l143 -295h-65l-131 225l-123 -225h-66z" />
<glyph unicode="&#xd5;" horiz-adv-x="849" d="M98 682q0 151 17.5 274t54.5 222.5t101.5 155t152.5 55.5q89 0 154 -55.5t102 -155t54.5 -222.5t17.5 -274t-17.5 -274t-54.5 -222.5t-102 -155t-154 -55.5q-88 0 -152.5 55.5t-101.5 155t-54.5 222.5t-17.5 274zM207 1499q0 122 34 198.5t105 76.5q39 0 63.5 -33.5 t33.5 -73t25 -73t40 -33.5q74 0 74 200h63q0 -77 -13.5 -136.5t-45.5 -98.5t-80 -39q-39 0 -63.5 33.5t-33.5 73t-25 73t-40 33.5q-74 0 -74 -201h-63zM215 682q0 -126 11 -231.5t34.5 -191.5t65.5 -134.5t98 -48.5q57 0 99 48.5t66 135t35 191t11 231.5q0 128 -11 233 t-35 191t-66 134t-99 48t-98.5 -48t-65 -134t-34.5 -191t-11 -233z" />
<glyph unicode="&#xd6;" horiz-adv-x="849" d="M98 682q0 151 17.5 274t54.5 222.5t101.5 155t152.5 55.5q89 0 154 -55.5t102 -155t54.5 -222.5t17.5 -274t-17.5 -274t-54.5 -222.5t-102 -155t-154 -55.5q-88 0 -152.5 55.5t-101.5 155t-54.5 222.5t-17.5 274zM215 682q0 -126 11 -231.5t34.5 -191.5t65.5 -134.5 t98 -48.5q57 0 99 48.5t66 135t35 191t11 231.5q0 128 -11 233t-35 191t-66 134t-99 48t-98.5 -48t-65 -134t-34.5 -191t-11 -233zM215 1573q0 29 22.5 50.5t51.5 21.5q31 0 52 -21.5t21 -50.5q0 -31 -21 -52.5t-52 -21.5q-30 0 -52 22t-22 52zM485 1573q0 29 21.5 50.5 t52.5 21.5q29 0 51.5 -21.5t22.5 -50.5q0 -30 -22 -52t-52 -22q-31 0 -52.5 21.5t-21.5 52.5z" />
<glyph unicode="&#xd7;" horiz-adv-x="770" d="M102 461l226 223l-226 223l60 60l223 -226l223 226l60 -60l-226 -223l226 -223l-60 -60l-223 226l-223 -226z" />
<glyph unicode="&#xd8;" horiz-adv-x="849" d="M98 682q0 151 17.5 274t54.5 222.5t101.5 155t152.5 55.5q112 0 192 -99l29 76h88l-63 -166q82 -186 82 -518q0 -151 -17.5 -274t-54.5 -222.5t-102 -155t-154 -55.5q-115 0 -193 97l-26 -72h-86l61 160q-82 182 -82 522zM215 682q0 -208 29 -356l323 839 q-53 123 -143 123q-57 0 -98.5 -48t-65 -134t-34.5 -191t-11 -233zM281 201q53 -125 143 -125q57 0 99 48.5t66 135t35 191t11 231.5q0 209 -29 354z" />
<glyph unicode="&#xd9;" horiz-adv-x="851" d="M137 334v1032h111v-1034q0 -256 178 -256t178 256v1034h111v-1032q0 -181 -77 -270t-212 -89q-133 0 -211 89t-78 270zM248 1786h110l162 -295h-71z" />
<glyph unicode="&#xda;" horiz-adv-x="851" d="M137 334v1032h111v-1034q0 -256 178 -256t178 256v1034h111v-1032q0 -181 -77 -270t-212 -89q-133 0 -211 89t-78 270zM334 1491l160 295h112l-200 -295h-72z" />
<glyph unicode="&#xdb;" horiz-adv-x="851" d="M137 334v1032h111v-1034q0 -256 178 -256t178 256v1034h111v-1032q0 -181 -77 -270t-212 -89q-133 0 -211 89t-78 270zM233 1491l138 295h104l143 -295h-65l-131 225l-123 -225h-66z" />
<glyph unicode="&#xdc;" horiz-adv-x="851" d="M137 334v1032h111v-1034q0 -256 178 -256t178 256v1034h111v-1032q0 -181 -77 -270t-212 -89q-133 0 -211 89t-78 270zM215 1573q0 29 22.5 50.5t51.5 21.5q31 0 52 -21.5t21 -50.5q0 -31 -21 -52.5t-52 -21.5q-30 0 -52 22t-22 52zM485 1573q0 29 21.5 50.5t52.5 21.5 q29 0 51.5 -21.5t22.5 -50.5q0 -30 -22 -52t-52 -22q-31 0 -52.5 21.5t-21.5 52.5z" />
<glyph unicode="&#xdd;" horiz-adv-x="710" d="M2 1366h119l235 -661l238 661h115l-299 -780v-586h-109v586zM272 1491l160 295h113l-201 -295h-72z" />
<glyph unicode="&#xde;" horiz-adv-x="745" d="M137 0v1366h111v-256h133q100 0 170 -56t100.5 -143.5t30.5 -199.5q0 -82 -18 -152t-53.5 -125.5t-94.5 -87t-135 -31.5h-133v-315h-111zM248 416h125q96 0 144 80t48 215q0 137 -48 219t-144 82h-125v-596z" />
<glyph unicode="&#xdf;" horiz-adv-x="868" d="M147 0v1087q0 133 75.5 216t197.5 83q115 0 188.5 -68t73.5 -169q0 -57 -21 -103t-51 -77t-60.5 -59t-51.5 -62.5t-21 -73.5q0 -47 20 -86t51.5 -68t69.5 -57t76.5 -60t70 -68t51.5 -89.5t20 -118.5q0 -105 -70.5 -178.5t-173.5 -73.5q-79 0 -136 30.5t-106 92.5l53 76 q18 -23 30.5 -37t36 -34.5t52 -31t60.5 -10.5q58 0 103.5 46.5t45.5 119.5q0 50 -19.5 92t-50.5 72t-69 58.5t-76 59t-69 65t-50.5 85t-19.5 111.5q0 50 21.5 92t51.5 73t60.5 60.5t52 68t21.5 81.5q0 63 -46 107t-118 44q-76 0 -124 -52.5t-48 -156.5v-1087h-101z" />
<glyph unicode="&#xe0;" d="M86 494q0 113 15 206t45.5 164t81 110.5t116.5 39.5q54 0 104.5 -42.5t79.5 -123.5v141h101v-989h-101v139q-30 -75 -81 -119.5t-103 -44.5q-130 0 -194 141.5t-64 377.5zM195 494q0 -428 167 -428q52 0 99 55t67 129v485q-20 76 -67 132.5t-99 56.5q-167 0 -167 -430z M201 1434h110l162 -295h-72z" />
<glyph unicode="&#xe1;" d="M86 494q0 113 15 206t45.5 164t81 110.5t116.5 39.5q54 0 104.5 -42.5t79.5 -123.5v141h101v-989h-101v139q-30 -75 -81 -119.5t-103 -44.5q-130 0 -194 141.5t-64 377.5zM195 494q0 -428 167 -428q52 0 99 55t67 129v485q-20 76 -67 132.5t-99 56.5q-167 0 -167 -430z M289 1139l160 295h112l-201 -295h-71z" />
<glyph unicode="&#xe2;" d="M86 494q0 113 15 206t45.5 164t81 110.5t116.5 39.5q54 0 104.5 -42.5t79.5 -123.5v141h101v-989h-101v139q-30 -75 -81 -119.5t-103 -44.5q-130 0 -194 141.5t-64 377.5zM190 1139l138 295h104l143 -295h-65l-131 225l-123 -225h-66zM195 494q0 -428 167 -428 q52 0 99 55t67 129v485q-20 76 -67 132.5t-99 56.5q-167 0 -167 -430z" />
<glyph unicode="&#xe3;" d="M86 494q0 113 15 206t45.5 164t81 110.5t116.5 39.5q54 0 104.5 -42.5t79.5 -123.5v141h101v-989h-101v139q-30 -75 -81 -119.5t-103 -44.5q-130 0 -194 141.5t-64 377.5zM160 1147q0 122 34 198t105 76q39 0 63.5 -33.5t33.5 -73t25 -73t40 -33.5q74 0 74 201h63 q0 -77 -13.5 -136.5t-45.5 -98.5t-80 -39q-39 0 -63.5 33.5t-33.5 73t-25 73t-40 33.5q-74 0 -74 -201h-63zM195 494q0 -428 167 -428q52 0 99 55t67 129v485q-20 76 -67 132.5t-99 56.5q-167 0 -167 -430z" />
<glyph unicode="&#xe4;" d="M86 494q0 113 15 206t45.5 164t81 110.5t116.5 39.5q54 0 104.5 -42.5t79.5 -123.5v141h101v-989h-101v139q-30 -75 -81 -119.5t-103 -44.5q-130 0 -194 141.5t-64 377.5zM168 1231q0 29 22.5 50.5t51.5 21.5q30 0 51.5 -21.5t21.5 -50.5q0 -31 -21 -52.5t-52 -21.5 q-30 0 -52 22t-22 52zM195 494q0 -428 167 -428q52 0 99 55t67 129v485q-20 76 -67 132.5t-99 56.5q-167 0 -167 -430zM438 1231q0 29 21.5 50.5t52.5 21.5q29 0 51.5 -21.5t22.5 -50.5q0 -30 -22 -52t-52 -22q-31 0 -52.5 21.5t-21.5 52.5z" />
<glyph unicode="&#xe5;" d="M86 494q0 113 15 206t45.5 164t81 110.5t116.5 39.5q54 0 104.5 -42.5t79.5 -123.5v141h101v-989h-101v139q-30 -75 -81 -119.5t-103 -44.5q-130 0 -194 141.5t-64 377.5zM195 494q0 -428 167 -428q52 0 99 55t67 129v485q-20 76 -67 132.5t-99 56.5q-167 0 -167 -430z M217 1307q0 69 48.5 117.5t117.5 48.5q67 0 114.5 -48.5t47.5 -117.5q0 -68 -47.5 -116t-114.5 -48q-69 0 -117.5 48t-48.5 116zM279 1307q0 -43 30 -73t74 -30q43 0 72.5 30t29.5 73t-29.5 73.5t-72.5 30.5q-44 0 -74 -30.5t-30 -73.5z" />
<glyph unicode="&#xe6;" horiz-adv-x="1175" d="M86 494q0 113 15 206t45.5 164t81 110.5t116.5 39.5q54 0 104.5 -42.5t79.5 -123.5v141h101v-145q54 170 196 170q74 0 129 -41t86 -114.5t45.5 -163t14.5 -197.5v-35h-471q0 -184 57.5 -292t165.5 -108q45 0 88.5 34t73.5 96l69 -56q-84 -162 -223 -162q-172 0 -231 191 v-166h-101v139q-30 -75 -81 -119.5t-103 -44.5q-130 0 -194 141.5t-64 377.5zM195 494q0 -428 167 -428q52 0 99 55t67 129v485q-20 76 -67 132.5t-99 56.5q-167 0 -167 -430zM629 543h366q0 71 -8.5 134t-27.5 122t-56.5 94t-89.5 35q-50 0 -87 -34t-56.5 -91t-29 -115.5 t-11.5 -122.5v-22z" />
<glyph unicode="&#xe7;" horiz-adv-x="626" d="M86 496q0 148 32 263t102 185t169 70q62 0 104.5 -23t81.5 -69l-51 -74q-59 76 -127 76q-55 0 -96 -36t-63 -98.5t-32.5 -135t-10.5 -158.5t10.5 -159t32.5 -136t63 -99t96 -36q71 0 127 75l51 -73q-33 -42 -68 -64.5t-85 -26.5l-33 -90q25 19 60 19q44 0 75 -35.5 t31 -93.5q0 -69 -49.5 -114.5t-122.5 -45.5q-82 0 -152 59l31 64q58 -55 119 -55q42 0 72 25.5t30 66.5q0 35 -17.5 55.5t-45.5 20.5q-36 0 -62 -29l-53 31l45 125q-86 13 -146.5 85.5t-89 182.5t-28.5 248z" />
<glyph unicode="&#xe8;" horiz-adv-x="735" d="M86 496q0 149 29 262.5t95.5 184.5t164.5 71q77 0 134 -41t89.5 -114t48 -163t15.5 -198v-35h-472q0 -184 58 -293t166 -109q43 0 86 34t75 95l70 -51q-92 -164 -237 -164q-109 0 -183 70t-106.5 184.5t-32.5 266.5zM190 543h367q0 71 -8.5 134t-27.5 122t-56.5 94 t-89.5 35t-90.5 -37.5t-58 -98.5t-28 -123t-8.5 -126zM201 1434h110l162 -295h-72z" />
<glyph unicode="&#xe9;" horiz-adv-x="735" d="M86 496q0 149 29 262.5t95.5 184.5t164.5 71q77 0 134 -41t89.5 -114t48 -163t15.5 -198v-35h-472q0 -184 58 -293t166 -109q43 0 86 34t75 95l70 -51q-92 -164 -237 -164q-109 0 -183 70t-106.5 184.5t-32.5 266.5zM190 543h367q0 71 -8.5 134t-27.5 122t-56.5 94 t-89.5 35t-90.5 -37.5t-58 -98.5t-28 -123t-8.5 -126zM285 1139l159 295h113l-201 -295h-71z" />
<glyph unicode="&#xea;" horiz-adv-x="735" d="M86 496q0 149 29 262.5t95.5 184.5t164.5 71q77 0 134 -41t89.5 -114t48 -163t15.5 -198v-35h-472q0 -184 58 -293t166 -109q43 0 86 34t75 95l70 -51q-92 -164 -237 -164q-109 0 -183 70t-106.5 184.5t-32.5 266.5zM184 1139l138 295h104l143 -295h-65l-131 225 l-123 -225h-66zM190 543h367q0 71 -8.5 134t-27.5 122t-56.5 94t-89.5 35t-90.5 -37.5t-58 -98.5t-28 -123t-8.5 -126z" />
<glyph unicode="&#xeb;" horiz-adv-x="735" d="M86 496q0 149 29 262.5t95.5 184.5t164.5 71q77 0 134 -41t89.5 -114t48 -163t15.5 -198v-35h-472q0 -184 58 -293t166 -109q43 0 86 34t75 95l70 -51q-92 -164 -237 -164q-109 0 -183 70t-106.5 184.5t-32.5 266.5zM164 1231q0 29 22.5 50.5t51.5 21.5q30 0 51.5 -21.5 t21.5 -50.5q0 -31 -21 -52.5t-52 -21.5q-30 0 -52 22t-22 52zM190 543h367q0 71 -8.5 134t-27.5 122t-56.5 94t-89.5 35t-90.5 -37.5t-58 -98.5t-28 -123t-8.5 -126zM434 1231q0 29 21.5 50.5t52.5 21.5q29 0 51.5 -21.5t22.5 -50.5q0 -30 -22 -52t-52 -22q-31 0 -52.5 21.5 t-21.5 52.5z" />
<glyph unicode="&#xec;" horiz-adv-x="348" d="M-4 1434h110l162 -295h-71zM125 0v989h100v-989h-100z" />
<glyph unicode="&#xed;" horiz-adv-x="348" d="M82 1139l160 295h112l-200 -295h-72zM125 0v989h100v-989h-100z" />
<glyph unicode="&#xee;" horiz-adv-x="348" d="M-16 1139l137 295h104l144 -295h-66l-131 225l-123 -225h-65zM125 0v989h100v-989h-100z" />
<glyph unicode="&#xef;" horiz-adv-x="348" d="M-35 1231q0 29 22.5 50.5t51.5 21.5q31 0 52.5 -21.5t21.5 -50.5q0 -31 -21.5 -52.5t-52.5 -21.5q-30 0 -52 22t-22 52zM125 0v989h100v-989h-100zM236 1231q0 29 21 50.5t52 21.5q29 0 51.5 -21.5t22.5 -50.5q0 -30 -22 -52t-52 -22q-31 0 -52 21.5t-21 52.5z" />
<glyph unicode="&#xf0;" horiz-adv-x="751" d="M86 489q0 104 15 192.5t46 161.5t85.5 114.5t127.5 41.5q109 0 162 -118q-30 119 -94 274l-201 -92l-30 65l202 91q-42 91 -71 135l92 47q36 -60 74 -141l145 65l27 -61l-144 -66q144 -340 144 -688q0 -113 -15.5 -206.5t-49 -169t-91 -117.5t-135.5 -42q-76 0 -133.5 42 t-90.5 115.5t-49 162.5t-16 194zM195 489q0 -83 8.5 -153.5t27.5 -134t56 -99.5t88 -36q53 0 90 36t56.5 99.5t27.5 133.5t8 154q0 83 -8 152.5t-27.5 132.5t-56.5 99t-90 36q-51 0 -88 -36t-56 -99t-27.5 -132.5t-8.5 -152.5z" />
<glyph unicode="&#xf1;" horiz-adv-x="737" d="M125 0v989h100v-143q34 71 93 119.5t122 48.5q90 0 132 -52.5t42 -158.5v-803h-102v782q0 142 -100 142q-58 0 -109 -53t-78 -126v-745h-100zM154 1147q0 122 34 198t105 76q39 0 63.5 -33.5t33.5 -73t25 -73t40 -33.5q73 0 73 201h64q0 -77 -13.5 -136.5t-45.5 -98.5 t-80 -39q-39 0 -63.5 33.5t-33.5 73t-25 73t-40 33.5q-74 0 -74 -201h-63z" />
<glyph unicode="&#xf2;" horiz-adv-x="751" d="M86 496q0 105 16 195.5t49 164t90.5 116t133.5 42.5q63 0 113 -28t82.5 -76t54.5 -115t31.5 -141t9.5 -158t-9.5 -158t-31.5 -141.5t-54.5 -116t-82.5 -77t-113 -28.5q-76 0 -133.5 42.5t-90.5 117t-49 165t-16 196.5zM195 496q0 -85 8.5 -156.5t27.5 -136t56 -101 t88 -36.5q53 0 90 36.5t56.5 101t27.5 135.5t8 157q0 85 -8 155.5t-27.5 135t-56.5 101t-90 36.5q-51 0 -88 -36.5t-56 -101t-27.5 -135.5t-8.5 -155zM199 1434h110l162 -295h-72z" />
<glyph unicode="&#xf3;" horiz-adv-x="751" d="M86 496q0 105 16 195.5t49 164t90.5 116t133.5 42.5q63 0 113 -28t82.5 -76t54.5 -115t31.5 -141t9.5 -158t-9.5 -158t-31.5 -141.5t-54.5 -116t-82.5 -77t-113 -28.5q-76 0 -133.5 42.5t-90.5 117t-49 165t-16 196.5zM195 496q0 -85 8.5 -156.5t27.5 -136t56 -101 t88 -36.5q53 0 90 36.5t56.5 101t27.5 135.5t8 157q0 85 -8 155.5t-27.5 135t-56.5 101t-90 36.5q-51 0 -88 -36.5t-56 -101t-27.5 -135.5t-8.5 -155zM285 1139l159 295h113l-201 -295h-71z" />
<glyph unicode="&#xf4;" horiz-adv-x="751" d="M86 496q0 105 16 195.5t49 164t90.5 116t133.5 42.5q63 0 113 -28t82.5 -76t54.5 -115t31.5 -141t9.5 -158t-9.5 -158t-31.5 -141.5t-54.5 -116t-82.5 -77t-113 -28.5q-76 0 -133.5 42.5t-90.5 117t-49 165t-16 196.5zM184 1139l138 295h104l143 -295h-65l-131 225 l-123 -225h-66zM195 496q0 -85 8.5 -156.5t27.5 -136t56 -101t88 -36.5q53 0 90 36.5t56.5 101t27.5 135.5t8 157q0 85 -8 155.5t-27.5 135t-56.5 101t-90 36.5q-51 0 -88 -36.5t-56 -101t-27.5 -135.5t-8.5 -155z" />
<glyph unicode="&#xf5;" horiz-adv-x="751" d="M86 496q0 105 16 195.5t49 164t90.5 116t133.5 42.5q63 0 113 -28t82.5 -76t54.5 -115t31.5 -141t9.5 -158t-9.5 -158t-31.5 -141.5t-54.5 -116t-82.5 -77t-113 -28.5q-76 0 -133.5 42.5t-90.5 117t-49 165t-16 196.5zM158 1147q0 122 34 198t105 76q39 0 63.5 -33.5 t33.5 -73t25 -73t40 -33.5q73 0 73 201h64q0 -77 -13.5 -136.5t-45.5 -98.5t-80 -39q-39 0 -63.5 33.5t-33.5 73t-25 73t-40 33.5q-74 0 -74 -201h-63zM195 496q0 -85 8.5 -156.5t27.5 -136t56 -101t88 -36.5q53 0 90 36.5t56.5 101t27.5 135.5t8 157q0 85 -8 155.5 t-27.5 135t-56.5 101t-90 36.5q-51 0 -88 -36.5t-56 -101t-27.5 -135.5t-8.5 -155z" />
<glyph unicode="&#xf6;" horiz-adv-x="751" d="M86 496q0 105 16 195.5t49 164t90.5 116t133.5 42.5q63 0 113 -28t82.5 -76t54.5 -115t31.5 -141t9.5 -158t-9.5 -158t-31.5 -141.5t-54.5 -116t-82.5 -77t-113 -28.5q-76 0 -133.5 42.5t-90.5 117t-49 165t-16 196.5zM168 1231q0 29 22.5 50.5t51.5 21.5 q30 0 51.5 -21.5t21.5 -50.5q0 -31 -21 -52.5t-52 -21.5q-30 0 -52 22t-22 52zM195 496q0 -85 8.5 -156.5t27.5 -136t56 -101t88 -36.5q53 0 90 36.5t56.5 101t27.5 135.5t8 157q0 85 -8 155.5t-27.5 135t-56.5 101t-90 36.5q-51 0 -88 -36.5t-56 -101t-27.5 -135.5 t-8.5 -155zM438 1231q0 29 21.5 50.5t52.5 21.5q29 0 51.5 -21.5t22.5 -50.5q0 -30 -22 -52t-52 -22q-31 0 -52.5 21.5t-21.5 52.5z" />
<glyph unicode="&#xf7;" horiz-adv-x="765" d="M59 649v82h648v-82h-648zM307 393q0 33 23.5 56.5t56.5 23.5q32 0 55 -23t23 -57q0 -32 -23 -55t-55 -23t-56 23t-24 55zM307 977q0 32 24 55t56 23t55 -23t23 -55q0 -34 -23 -57t-55 -23q-33 0 -56.5 23.5t-23.5 56.5z" />
<glyph unicode="&#xf8;" horiz-adv-x="751" d="M86 496q0 105 16 195.5t49 164t90.5 116t133.5 42.5q102 0 172 -76l24 51h74l-53 -115q74 -142 74 -378q0 -84 -9.5 -158t-31.5 -141.5t-54.5 -116t-82.5 -77t-113 -28.5q-102 0 -170 74l-23 -49h-76l54 115q-74 142 -74 381zM195 496q0 -155 24 -254l281 596 q-49 86 -125 86q-51 0 -88 -36.5t-56 -101t-27.5 -135.5t-8.5 -155zM252 150q48 -84 123 -84q53 0 90 36.5t56.5 101t27.5 135.5t8 157q0 149 -25 252z" />
<glyph unicode="&#xf9;" horiz-adv-x="737" d="M125 186v803h100v-784q0 -139 101 -139q58 0 108.5 50.5t77.5 123.5v749h102v-989h-102v139q-35 -72 -91 -118t-124 -46q-91 0 -131.5 50t-40.5 161zM193 1434h110l162 -295h-72z" />
<glyph unicode="&#xfa;" horiz-adv-x="737" d="M125 186v803h100v-784q0 -139 101 -139q58 0 108.5 50.5t77.5 123.5v749h102v-989h-102v139q-35 -72 -91 -118t-124 -46q-91 0 -131.5 50t-40.5 161zM279 1139l159 295h113l-201 -295h-71z" />
<glyph unicode="&#xfb;" horiz-adv-x="737" d="M125 186v803h100v-784q0 -139 101 -139q58 0 108.5 50.5t77.5 123.5v749h102v-989h-102v139q-35 -72 -91 -118t-124 -46q-91 0 -131.5 50t-40.5 161zM180 1139l137 295h105l143 -295h-65l-131 225l-123 -225h-66z" />
<glyph unicode="&#xfc;" horiz-adv-x="737" d="M125 186v803h100v-784q0 -139 101 -139q58 0 108.5 50.5t77.5 123.5v749h102v-989h-102v139q-35 -72 -91 -118t-124 -46q-91 0 -131.5 50t-40.5 161zM164 1231q0 29 22.5 50.5t51.5 21.5q30 0 51.5 -21.5t21.5 -50.5q0 -31 -21 -52.5t-52 -21.5q-30 0 -52 22t-22 52z M434 1231q0 29 21.5 50.5t52.5 21.5q29 0 51.5 -21.5t22.5 -50.5q0 -30 -22 -52t-52 -22q-31 0 -52.5 21.5t-21.5 52.5z" />
<glyph unicode="&#xfd;" horiz-adv-x="737" d="M106 -303l52 86q75 -94 188 -94q77 0 121.5 64t44.5 184v210q-34 -73 -90 -118t-125 -45q-91 0 -131.5 50t-40.5 161v794h100v-776q0 -139 101 -139q58 0 108.5 50.5t77.5 123.5v741h102v-1052q0 -158 -69 -248t-195 -90q-70 0 -135 25.5t-109 72.5zM276 1139l160 295 h113l-201 -295h-72z" />
<glyph unicode="&#xfe;" d="M125 -377v1743h100v-506q31 75 78.5 114.5t104.5 39.5q89 0 148 -69t84.5 -182t25.5 -267q0 -153 -25.5 -267t-84.5 -184t-148 -70q-56 0 -105 38.5t-78 119.5v-510h-100zM225 254q18 -75 66 -131.5t100 -56.5q168 0 168 430q0 428 -168 428q-53 0 -100.5 -55.5 t-65.5 -129.5v-485z" />
<glyph unicode="&#xff;" horiz-adv-x="737" d="M106 -303l52 86q75 -94 188 -94q77 0 121.5 64t44.5 184v210q-34 -73 -90 -118t-125 -45q-91 0 -131.5 50t-40.5 161v794h100v-776q0 -139 101 -139q58 0 108.5 50.5t77.5 123.5v741h102v-1052q0 -158 -69 -248t-195 -90q-70 0 -135 25.5t-109 72.5zM160 1231 q0 29 22 50.5t51 21.5q31 0 52.5 -21.5t21.5 -50.5q0 -31 -21.5 -52.5t-52.5 -21.5q-29 0 -51 21.5t-22 52.5zM430 1231q0 29 21.5 50.5t52.5 21.5q29 0 51.5 -21.5t22.5 -50.5q0 -30 -22 -52t-52 -22q-31 0 -52.5 21.5t-21.5 52.5z" />
<glyph unicode="&#x152;" horiz-adv-x="1183" d="M98 682q0 151 16.5 273.5t52 222t98.5 154t149 54.5q135 0 202 -169v149h469v-100h-358v-514h344v-101h-344v-551h358v-100h-469v150q-27 -68 -65.5 -109t-71 -53.5t-65.5 -12.5q-86 0 -149 55.5t-98.5 155.5t-52 222.5t-16.5 273.5zM215 682q0 -128 10.5 -232.5t34 -191 t65.5 -134.5t101 -48q67 0 116 73.5t74 204.5v658q-25 130 -73.5 202t-116.5 72q-211 0 -211 -604z" />
<glyph unicode="&#x153;" horiz-adv-x="1206" d="M86 496q0 105 16 195.5t49 164t90.5 116t133.5 42.5q90 0 147.5 -60.5t89.5 -175.5q29 114 89 175t145 61q77 0 134 -41t89.5 -114t48 -163.5t15.5 -199.5v-33h-471q0 -185 57.5 -293.5t165.5 -108.5q43 0 86.5 34t75.5 95l69 -51q-92 -164 -237 -164q-104 0 -167.5 63 t-97.5 183q-63 -246 -239 -246q-76 0 -133.5 42.5t-90.5 117t-49 165t-16 196.5zM195 496q0 -85 8 -156.5t27 -136.5t56 -102.5t89 -37.5q53 0 90 37.5t56.5 103t27.5 136.5t8 156t-8 155.5t-27.5 135t-56.5 101t-90 36.5q-52 0 -89 -36.5t-56 -101t-27 -135t-8 -155.5z M662 543h366q0 71 -8.5 134t-27.5 122t-56.5 94t-89.5 35t-90 -37.5t-57.5 -98.5t-28 -123t-8.5 -126z" />
<glyph unicode="&#x178;" horiz-adv-x="710" d="M2 1366h119l235 -661l238 661h115l-299 -780v-586h-109v586zM154 1573q0 29 22 50.5t51 21.5q31 0 52.5 -21.5t21.5 -50.5q0 -31 -21.5 -52.5t-52.5 -21.5q-29 0 -51 21.5t-22 52.5zM424 1573q0 29 21.5 50.5t52.5 21.5q29 0 51 -21.5t22 -50.5q0 -31 -21.5 -52.5 t-51.5 -21.5q-31 0 -52.5 21.5t-21.5 52.5z" />
<glyph unicode="&#x2c6;" horiz-adv-x="385" d="M0 1139l137 295h105l143 -295h-66l-131 225l-122 -225h-66z" />
<glyph unicode="&#x2dc;" horiz-adv-x="438" d="M0 1147q0 122 34 198t105 76q39 0 63.5 -33.5t33.5 -73t25 -73t40 -33.5q74 0 74 201h63q0 -77 -13.5 -136.5t-45.5 -98.5t-80 -39q-39 0 -63.5 33.5t-33.5 73t-25 73t-40 33.5q-74 0 -74 -201h-63z" />
<glyph unicode="&#x2000;" horiz-adv-x="893" />
<glyph unicode="&#x2001;" horiz-adv-x="1786" />
<glyph unicode="&#x2002;" horiz-adv-x="893" />
<glyph unicode="&#x2003;" horiz-adv-x="1786" />
<glyph unicode="&#x2004;" horiz-adv-x="595" />
<glyph unicode="&#x2005;" horiz-adv-x="446" />
<glyph unicode="&#x2006;" horiz-adv-x="297" />
<glyph unicode="&#x2007;" horiz-adv-x="297" />
<glyph unicode="&#x2008;" horiz-adv-x="223" />
<glyph unicode="&#x2009;" horiz-adv-x="357" />
<glyph unicode="&#x200a;" horiz-adv-x="99" />
<glyph unicode="&#x2010;" horiz-adv-x="477" d="M61 449v94h355v-94h-355z" />
<glyph unicode="&#x2011;" horiz-adv-x="477" d="M61 449v94h355v-94h-355z" />
<glyph unicode="&#x2012;" horiz-adv-x="477" d="M61 449v94h355v-94h-355z" />
<glyph unicode="&#x2013;" horiz-adv-x="942" d="M61 449v94h820v-94h-820z" />
<glyph unicode="&#x2014;" horiz-adv-x="1310" d="M61 449v94h1188v-94h-1188z" />
<glyph unicode="&#x2018;" horiz-adv-x="446" d="M131 1114q0 80 41 154.5t102 117.5l58 -47q-49 -35 -82.5 -88.5t-36.5 -101.5q4 4 20 4q34 0 57 -24.5t23 -59.5q0 -34 -24.5 -59t-59.5 -25q-43 0 -70.5 34t-27.5 95z" />
<glyph unicode="&#x2019;" horiz-adv-x="446" d="M117 1032q49 35 82.5 88.5t36.5 100.5l-9 -1q-9 -1 -12 -1q-34 0 -57 24.5t-23 59.5q0 34 24.5 58.5t59.5 24.5q43 0 70.5 -34.5t27.5 -94.5q0 -81 -40.5 -155t-102.5 -117z" />
<glyph unicode="&#x201a;" horiz-adv-x="446" d="M117 -201q49 33 82.5 87t36.5 102l-9 -1q-9 -1 -12 -1q-34 0 -57 23.5t-23 58.5t24.5 60.5t59.5 25.5q43 0 70.5 -34.5t27.5 -94.5q0 -82 -41 -157t-102 -118z" />
<glyph unicode="&#x201c;" horiz-adv-x="731" d="M127 1114q0 80 41.5 154t101.5 118l60 -47q-49 -35 -82.5 -88.5t-36.5 -101.5q4 4 20 4q34 0 57 -24.5t23 -59.5q0 -34 -25 -59t-61 -25q-42 0 -70 34t-28 95zM412 1114q0 80 41 154.5t102 117.5l59 -47q-49 -35 -82 -88.5t-36 -101.5q4 4 18 4q35 0 57.5 -24t22.5 -60 q0 -34 -24 -59t-60 -25q-42 0 -70 34t-28 95z" />
<glyph unicode="&#x201d;" horiz-adv-x="731" d="M117 1032q49 35 82.5 88.5t36.5 100.5l-9 -1q-9 -1 -12 -1q-34 0 -57 24.5t-23 59.5q0 34 24.5 58.5t59.5 24.5q43 0 70.5 -34.5t27.5 -94.5q0 -81 -40.5 -155t-102.5 -117zM401 1032q49 35 82.5 88.5t36.5 100.5l-8 -1q-8 -1 -12 -1q-35 0 -57.5 24t-22.5 60 q0 34 24.5 58.5t59.5 24.5q41 0 69.5 -35t28.5 -94q0 -81 -40.5 -155t-102.5 -117z" />
<glyph unicode="&#x201e;" horiz-adv-x="731" d="M117 -201q49 33 82.5 87t36.5 102l-9 -1q-9 -1 -12 -1q-34 0 -57 23.5t-23 58.5t24.5 60.5t59.5 25.5q43 0 70.5 -34.5t27.5 -94.5q0 -82 -41 -157t-102 -118zM401 -201q49 33 82.5 87t36.5 102l-8 -1q-8 -1 -12 -1q-35 0 -57.5 23.5t-22.5 58.5t24.5 60.5t59.5 25.5 q41 0 69.5 -35t28.5 -94q0 -82 -41 -157t-102 -118z" />
<glyph unicode="&#x2022;" horiz-adv-x="733" d="M160 496q0 86 61.5 147.5t147.5 61.5t147.5 -61.5t61.5 -147.5q0 -85 -61.5 -146t-147.5 -61t-147.5 61t-61.5 146z" />
<glyph unicode="&#x2026;" horiz-adv-x="1335" d="M135 68q0 34 26 60t62 26q35 0 60.5 -26t25.5 -60q0 -35 -25.5 -61.5t-60.5 -26.5q-36 0 -62 26t-26 62zM580 68q0 34 26.5 60t61.5 26t61.5 -26t26.5 -60q0 -35 -26.5 -61.5t-61.5 -26.5t-61.5 26.5t-26.5 61.5zM1026 68q0 34 25.5 60t60.5 26q36 0 62 -26t26 -60 q0 -36 -26 -62t-62 -26q-35 0 -60.5 26.5t-25.5 61.5z" />
<glyph unicode="&#x202f;" horiz-adv-x="357" />
<glyph unicode="&#x2039;" horiz-adv-x="401" d="M61 498l185 362h94l-184 -362l184 -369h-94z" />
<glyph unicode="&#x203a;" horiz-adv-x="401" d="M61 129l185 369l-185 362h95l184 -362l-184 -369h-95z" />
<glyph unicode="&#x205f;" horiz-adv-x="446" />
<glyph unicode="&#x20ac;" horiz-adv-x="786" d="M35 498v80h88q-2 33 -2 104q0 72 2 109h-88v79h92q14 156 50 268.5t105.5 181.5t166.5 69q55 0 99 -19.5t73.5 -55.5t49 -74.5t34.5 -88.5l-95 -35q-29 87 -64.5 129.5t-96.5 42.5q-171 0 -205 -418h262v-79h-266q-2 -35 -2 -109q0 -71 2 -104h266v-80h-262 q9 -128 33 -220t67.5 -147t104.5 -55q68 0 105 54.5t62 156.5l95 -37q-67 -275 -262 -275q-143 0 -221.5 140t-100.5 383h-92z" />
<glyph unicode="&#x2122;" horiz-adv-x="765" d="M35 1313v53h229v-53h-86v-398h-57v398h-86zM338 915v451h88l90 -322l90 322h88v-451h-57v373l-113 -373h-16l-113 373v-373h-57z" />
<glyph unicode="&#x25fc;" horiz-adv-x="993" d="M0 0v993h993v-993h-993z" />
</font>
</defs>
</svg>
